<svg xmlns="http://www.w3.org/2000/svg" xmlns:xlink="http://www.w3.org/1999/xlink" version="1.1" x="0px" y="0px" viewBox="0 0 100 125" enable-background="new 0 0 100 100" xml:space="preserve"><g><path fill="#000000" d="M60.532,7.873c-8.872,0-16.168,6.702-17.122,15.319h-4.058c-0.954-8.617-8.247-15.319-17.118-15.319   C12.712,7.873,5,15.588,5,25.106c0,9.518,7.712,17.234,17.234,17.234c8.198,0,15.046-5.733,16.792-13.404h4.709   c1.747,7.671,8.595,13.404,16.797,13.404c9.518,0,17.233-7.716,17.233-17.234C77.766,15.588,70.05,7.873,60.532,7.873"/><path fill="#000000" d="M91.17,40.425c-2.116,0-3.829,1.717-3.829,3.83v2.461l-10.103,2.887c-0.822,0.234-1.388,0.987-1.388,1.84   v8.6c0,0.856,0.565,1.606,1.388,1.842l10.103,2.887v2.461c0,2.113,1.713,3.83,3.829,3.83c2.113,0,3.83-1.717,3.83-3.83V44.255   C95,42.142,93.283,40.425,91.17,40.425"/><path fill="#000000" d="M41.383,37.837c-4.144,6.279-11.22,10.248-19.148,10.248c-4.189,0-8.104-1.145-11.489-3.108v18.427   c0,2.115,1.713,3.83,3.829,3.83h15.548L10.745,86.697v5.43h5.396l24.793-24.894h0.976l24.789,24.894h5.322v-5.513L52.719,67.234   h15.473c2.113,0,3.83-1.715,3.83-3.83V44.977c-3.389,1.963-7.305,3.108-11.489,3.108C52.6,48.085,45.523,44.117,41.383,37.837"/></g></svg>